:FULLY-SPECIFIED
:FORCE-ALL-JOINTS-BE-3DOF
:DEGREES
645
root 5.61208 16.4688 -2.95648 15.831 12.5857 -0.819006
lfemur -15.0211 21.7091 -27.1943
ltibia 32.0515 -0 0
lfoot -38.8559 12.9241 0.40826
ltoes 24.2922 -0 0
rfemur -58.1559 -28.1736 30.6575
rtibia 66.4902 -0 0
rfoot -3.12593 -3.42652 -0.0577978
rtoes 1.03938 -0 0
lowerback -0.931326 -3.63687 -5.3022
upperback -2.12186 -4.85199 0.365739
thorax -1.17563 -2.35166 3.31864
lowerneck -9.91547 -7.51964 -0.126804
upperneck 6.31188 -10.6822 6.50539
head 4.06624 -4.95034 1.44027
lclavicle -4.08457e-14 -1.53432e-14 2.07831e-30
lhumerus -40.8624 -67.6439 122.876
lradius 72.0269 -0 0
lwrist 23.6123 0 0
lhand -5.82148 2.63189 0.0321402
lfingers 7.12502 -0 0
lthumb 20.0033 31.6157 0.0290185
rclavicle -4.08457e-14 -1.53432e-14 2.07831e-30
rhumerus -31.5843 -0.155973 -74.881
rradius 69.3599 -0 0
rwrist -23.7187 0 0
rhand -29.8575 -43.0992 -0.03919
rfingers 7.12502 -0 0
rthumb -3.17981 -73.056 -0.0378184
646
root 5.59676 16.4368 -2.89394 16.2016 11.634 -0.585197
lfemur -15.3223 22.2324 -27.5954
ltibia 32.4283 -0 0
lfoot -39.0317 13.013 0.408278
ltoes 23.8025 -0 0
rfemur -59.177 -28.7432 31.7747
rtibia 66.7723 -0 0
rfoot -3.88891 -3.44207 -0.0490201
rtoes 1.40535 -0 0
lowerback -0.861322 -3.67916 -5.47603
upperback -2.05955 -4.913 0.204548
thorax -1.14548 -2.38277 3.25086
lowerneck -9.86594 -7.51818 -0.222285
upperneck 5.74371 -10.6453 6.72878
head 3.91461 -4.94559 1.54601
lclavicle -4.08505e-14 -1.39613e-14 1.67676e-30
lhumerus -41.8159 -68.2288 123.944
lradius 72.0552 -0 0
lwrist 23.8218 0 0
lhand -5.57389 2.88555 0.025541
lfingers 7.12502 -0 0
lthumb 20.2415 31.8465 0.0232587
rclavicle -4.08505e-14 -1.39613e-14 1.67676e-30
rhumerus -33.3228 -1.00279 -75.5636
rradius 67.6594 -0 0
rwrist -22.3175 0 0
rhand -29.7884 -44.0178 -0.0336764
rfingers 7.12502 -0 0
rthumb -3.11315 -73.9754 -0.0324983
647
root 5.58195 16.4054 -2.82789 16.5456 10.6799 -0.369061
lfemur -15.6405 22.7338 -27.9586
ltibia 32.8987 -0 0
lfoot -39.0919 13.0581 0.392157
ltoes 23.2863 -0 0
rfemur -60.1159 -29.232 32.8279
rtibia 67.0371 -0 0
rfoot -4.65166 -3.4639 -0.0387314
rtoes 1.74979 -0 0
lowerback -0.795022 -3.72554 -5.62678
upperback -2.00068 -4.97928 0.0557276
thorax -1.11776 -2.41668 3.18294
lowerneck -9.82038 -7.50913 -0.310261
upperneck 5.20266 -10.5972 6.92752
head 3.76897 -4.93593 1.6423
lclavicle -4.0702e-14 -1.26466e-14 1.28629e-30
lhumerus -42.6776 -68.785 124.905
lradius 72.1152 -0 0
lwrist 24.0278 0 0
lhand -5.35812 3.11537 0.0187726
lfingers 7.12502 -0 0
lthumb 20.449 32.0563 0.0173111
rclavicle -4.0702e-14 -1.26466e-14 1.28629e-30
rhumerus -34.975 -1.85178 -76.122
rradius 66.0681 -0 0
rwrist -21.0031 0 0
rhand -29.718 -44.8867 -0.0275321
rfingers 7.12502 -0 0
rthumb -3.04507 -74.8452 -0.0265689
648
root 5.56782 16.3751 -2.75817 16.8606 9.72159 -0.172896
lfemur -15.9734 23.2063 -28.2759
ltibia 33.4708 -0 0
lfoot -39.0209 13.0503 0.357432
ltoes 22.745 -0 0
rfemur -60.9473 -29.6338 33.7933
rtibia 67.2813 -0 0
rfoot -5.41084 -3.49985 -0.0277469
rtoes 2.06812 -0 0
lowerback -0.734471 -3.77642 -5.75012
upperback -1.94669 -5.0512 -0.0779946
thorax -1.09298 -2.45357 3.1152
lowerneck -9.78006 -7.49109 -0.388895
upperneck 4.69478 -10.5368 7.09692
head 3.6308 -4.92055 1.72727
lclavicle -4.0409e-14 -1.1424e-14 9.2258e-31
lhumerus -43.4188 -69.3119 125.729
lradius 72.2144 -0 0
lwrist 24.229 0 0
lhand -5.17929 3.31672 0.0123419
lfingers 7.12502 -0 0
lthumb 20.621 32.2409 0.0116132
rclavicle -4.0409e-14 -1.1424e-14 9.2258e-31
rhumerus -36.5325 -2.68875 -76.5402
rradius 64.6027 -0 0
rwrist -19.7904 0 0
rhand -29.6469 -45.697 -0.021071
rfingers 7.12502 -0 0
rthumb -2.97647 -75.6563 -0.0203333
649
root 5.55457 16.346 -2.68458 17.144 8.75747 0.00107693
lfemur -16.3186 23.6432 -28.5393
ltibia 34.1525 -0 0
lfoot -38.8034 12.9803 0.302007
ltoes 22.1802 -0 0
rfemur -61.6457 -29.9431 34.6467
rtibia 67.5014 -0 0
rfoot -6.16313 -3.5578 -0.0170836
rtoes 2.35574 -0 0
lowerback -0.681725 -3.83223 -5.84168
upperback -1.89905 -5.12916 -0.193887
thorax -1.07164 -2.4936 3.04794
lowerneck -9.74624 -7.46266 -0.456353
upperneck 4.22627 -10.4632 7.23225
head 3.50159 -4.89866 1.79902
lclavicle -3.99803e-14 -1.03183e-14 6.0004e-31
lhumerus -44.0088 -69.8095 126.386
lradius 72.36 -0 0
lwrist 24.4239 0 0
lhand -5.04247 3.48502 0.00677056
lfingers 7.12502 -0 0
lthumb 20.7526 32.3961 0.00661633
rclavicle -3.99803e-14 -1.03183e-14 6.0004e-31
rhumerus -37.9872 -3.49909 -76.8033
rradius 63.2798 -0 0
rwrist -18.694 0 0
rhand -29.5762 -46.4395 -0.014658
rfingers 7.12502 -0 0
rthumb -2.90821 -76.3996 -0.014144
650
root 5.54236 16.3186 -2.60696 17.3933 7.78587 0.150716
lfemur -16.6735 24.0377 -28.7403
ltibia 34.9519 -0 0
lfoot -38.4236 12.8386 0.224309
ltoes 21.5933 -0 0
rfemur -62.1857 -30.1546 35.3639
rtibia 67.694 -0 0
rfoot -6.9052 -3.64554 -0.00795181
rtoes 2.60807 -0 0
lowerback -0.638857 -3.89338 -5.89712
upperback -1.85922 -5.21356 -0.289211
thorax -1.05424 -2.53697 2.98151
lowerneck -9.7202 -7.42242 -0.510806
upperneck 3.80309 -10.3755 7.32886
head 3.38282 -4.86945 1.85568
lclavicle -3.94247e-14 -9.35437e-15 3.31583e-31
lhumerus -44.415 -70.2772 126.841
lradius 72.5597 -0 0
lwrist 24.6112 0 0
lhand -4.95277 3.61566 0.00256531
lfingers 7.12502 -0 0
lthumb 20.8389 32.5179 0.00276074
rclavicle -3.94247e-14 -9.35437e-15 3.31583e-31
rhumerus -39.3315 -4.26805 -76.8971
rradius 62.1162 -0 0
rwrist -17.7287 0 0
rhand -29.5068 -47.1052 -0.00870354
rfingers 7.12502 -0 0
rthumb -2.84117 -77.0661 -0.0083974
651
root 5.53139 16.293 -2.52512 17.6063 6.80514 0.273959
lfemur -17.0355 24.3834 -28.8705
ltibia 35.8768 -0 0
lfoot -37.8658 12.6154 0.123569
ltoes 20.9859 -0 0
rfemur -62.5422 -30.2632 35.9216
rtibia 67.8558 -0 0
rfoot -7.63371 -3.77089 -0.00174062
rtoes 2.82052 -0 0
lowerback -0.607957 -3.96029 -5.91208
upperback -1.82869 -5.30479 -0.361221
thorax -1.0413 -2.58386 2.91621
lowerneck -9.70319 -7.36898 -0.550428
upperneck 3.43126 -10.2726 7.38212
head 3.27596 -4.83212 1.89536
lclavicle -3.8751e-14 -8.55713e-15 1.28437e-31
lhumerus -44.6028 -70.7143 127.061
lradius 72.8207 -0 0
lwrist 24.7895 0 0
lhand -4.91527 3.70404 0.000184432
lfingers 7.12502 -0 0
lthumb 20.8749 32.6022 0.000446262
rclavicle -3.8751e-14 -8.55713e-15 1.28437e-31
rhumerus -40.5575 -4.981 -76.8076
rradius 61.1287 -0 0
rwrist -16.909 0 0
rhand -29.4395 -47.685 -0.00365705
rfingers 7.12502 -0 0
rthumb -2.77619 -77.6466 -0.00352769
652
root 5.52183 16.2696 -2.43889 17.7807 5.81363 0.36883
lfemur -17.4017 24.6737 -28.9211
ltibia 36.9351 0 0
lfoot -37.114 12.3006 0
ltoes 20.3595 0 0
rfemur -62.6914 -30.2631 36.2973
rtibia 67.9832 0 0
rfoot -8.34533 -3.94159 0
rtoes 2.98849 0 0
lowerback -0.591138 -4.03337 -5.88217
upperback -1.80897 -5.40325 -0.407164
thorax -1.03332 -2.63444 2.85238
lowerneck -9.69647 -7.30093 -0.573404
upperneck 3.11671 -10.1537 7.38745
head 3.18248 -4.7859 1.91621
lclavicle -3.79679e-14 -7.95139e-15 0
lhumerus -44.5367 -71.1192 127.009
lradius 73.1505 0 0
lwrist 24.9573 0 0
lhand -4.93506 3.74556 0
lfingers 7.12502 0 0
lthumb 20.8558 32.6446 0
rclavicle -3.79679e-14 -7.95139e-15 0
rhumerus -41.6572 -5.62375 -76.5216
rradius 60.334 0 0
rwrist -16.2497 0 0
rhand -29.3753 -48.1698 0
rfingers 7.12502 0 0
rthumb -2.71414 -798.132 0
653
root 5.51337 16.2447 -2.34773 17.9193 4.8309 0.441581
lfemur -17.775 24.9501 -28.9346
ltibia 38.1404 -0 0
lfoot -36.1249 11.8844 -0.148612
ltoes 19.6425 -0 0
rfemur -62.6818 -30.1505 36.5336
rtibia 68.1427 -0 0
rfoot -9.10277 -4.15157 -0.000195629
rtoes 3.1154 -0 0
lowerback -0.58815 -4.11867 -5.80242
upperback -1.79768 -5.51682 -0.424241
thorax -1.0279 -2.69288 2.78992
lowerneck -9.70286 -7.21571 -0.580347
upperneck 2.84892 -10.0144 7.33974
head 3.0994 -4.72906 1.91694
lclavicle -3.68742e-14 -7.52454e-15 -7.55962e-32
lhumerus -44.2954 -71.4747 126.788
lradius 73.5604 -0 0
lwrist 25.1184 0 0
lhand -5.00821 3.74574 0.000885094
lfingers 7.12502 -0 0
lthumb 20.7854 32.6509 0.000418212
rclavicle -3.68742e-14 -7.52454e-15 -7.55962e-32
rhumerus -42.6525 -6.22525 -76.0653
rradius 59.7 -0 0
rwrist -15.7601 0 0
rhand -29.3014 -48.5722 0.00307699
rfingers 7.12502 -0 0
rthumb -2.64276 -78.5352 0.00297107
654
root 5.50553 16.2151 -2.25144 18.0281 3.87488 0.500884
lfemur -18.1601 25.2536 -28.9551
ltibia 39.4939 -0 0
lfoot -34.882 11.3691 -0.319278
ltoes 18.7759 -0 0
rfemur -62.5779 -29.9326 36.689
rtibia 68.3914 -0 0
rfoot -9.96023 -4.38665 0.000384658
rtoes 3.20949 -0 0
lowerback -0.596409 -4.22057 -5.67407
upperback -1.79123 -5.65139 -0.413497
thorax -1.02251 -2.76228 2.72835
lowerneck -9.72311 -7.11299 -0.573956
upperneck 2.61211 -9.85306 7.24038
head 3.02254 -4.66124 1.89875
lclavicle -3.52983e-14 -7.23666e-15 -1.2633e-31
lhumerus -43.9723 -71.7696 126.511
lradius 74.0504 -0 0
lwrist 25.2775 0 0
lhand -5.12545 3.71453 0.00159418
lfingers 7.12502 -0 0
lthumb 20.6726 32.6306 0.000604769
rclavicle -3.52983e-14 -7.23666e-15 -1.2633e-31
rhumerus -43.5741 -6.82002 -75.4793
rradius 59.1812 -0 0
rwrist -15.4298 0 0
rhand -29.2066 -48.9133 0.00674023
rfingers 7.12502 -0 0
rthumb -2.55119 -78.8774 0.00651568
655
root 5.49828 16.1815 -2.15031 18.1093 2.94137 0.548343
lfemur -18.5576 25.5777 -28.9762
ltibia 40.9852 -0 0
lfoot -33.41 10.7631 -0.502661
ltoes 17.7799 -0 0
rfemur -62.3821 -29.6189 36.7667
rtibia 68.7122 -0 0
rfoot -10.9016 -4.64239 0.000449649
rtoes 3.27341 -0 0
lowerback -0.614552 -4.33692 -5.50202
upperback -1.78926 -5.80429 -0.377926
thorax -1.01744 -2.84127 2.66746
lowerneck -9.75532 -6.99466 -0.555559
upperneck 2.40434 -9.67248 7.09464
head 2.9516 -4.58371 1.86352
lclavicle -3.32934e-14 -7.07163e-15 -1.55787e-31
lhumerus -43.5532 -72.0108 126.157
lradius 74.6113 -0 0
lwrist 25.4345 0 0
lhand -5.28389 3.65397 0.00218627
lfingers 7.12502 -0 0
lthumb 20.5203 32.5852 0.00063426
rclavicle -3.32934e-14 -7.07163e-15 -1.55787e-31
rhumerus -44.4264 -7.40318 -74.772
rradius 58.7737 -0 0
rwrist -15.2445 0 0
rhand -29.0939 -49.1966 0.0109568
rfingers 7.12502 -0 0
rthumb -2.44241 -79.162 0.010602
